# Blender v3.1.2 OBJ File: 'Empress of Xara.blend'
# www.blender.org
o Cube
v -3.656726 -0.993970 5.571724
v -3.656726 1.006030 5.571724
v -3.656726 -0.993970 2.393976
v -3.656726 1.006030 2.393976
v -1.656726 -0.993970 5.571724
v -1.656726 1.006030 5.571724
v -1.656726 -0.993970 2.393976
v -1.656726 1.006030 2.393976
v -2.111543 -0.539153 2.393976
v -2.111543 -0.539153 5.571724
v -2.111543 0.551213 2.393976
v -2.111543 0.551213 5.571724
v -3.201909 0.551213 2.393976
v -3.201909 0.551213 5.571724
v -3.201909 -0.539153 2.393976
v -3.201909 -0.539153 5.571724
vt 0.625000 0.000000
vt 0.375000 0.250000
vt 0.375000 0.000000
vt 0.431852 0.306852
vt 0.375000 0.500000
vt 0.625000 0.500000
vt 0.375000 0.750000
vt 0.431852 0.806852
vt 0.375000 1.000000
vt 0.125000 0.750000
vt 0.125000 0.500000
vt 0.875000 0.500000
vt 0.625000 0.750000
vt 0.375000 0.630225
vt 0.625000 0.582850
vt 0.375000 0.582850
vt 0.375000 0.167150
vt 0.625000 0.119775
vt 0.375000 0.119775
vt 0.568148 0.443148
vt 0.625000 0.250000
vt 0.568148 0.943148
vt 0.625000 1.000000
vt 0.125000 0.630225
vt 0.125000 0.582850
vt 0.625000 0.630225
vt 0.875000 0.582850
vt 0.568148 0.306852
vt 0.431852 0.443148
vt 0.568148 0.806852
vt 0.431852 0.943148
vt 0.875000 0.750000
vt 0.625000 0.167150
vt 0.875000 0.630225
vn -1.0000 0.0000 0.0000
vn 0.0000 0.0000 -1.0000
vn 1.0000 0.0000 0.0000
vn 0.0000 0.0000 1.0000
vn 0.0000 -1.0000 0.0000
vn 0.0000 1.0000 0.0000
s off
f 2/1/1 3/2/1 1/3/1
f 3/2/2 15/4/2 7/5/2
f 8/6/3 5/7/3 7/5/3
f 5/7/4 10/8/4 1/9/4
f 7/5/5 1/10/5 3/11/5
f 4/12/6 6/13/6 8/6/6
f 10/14/1 11/15/1 9/16/1
f 15/17/3 14/18/3 16/19/3
f 11/20/2 4/21/2 8/6/2
f 14/22/4 6/13/4 2/23/4
f 16/24/6 9/16/6 15/25/6
f 12/26/5 13/27/5 11/15/5
f 2/1/1 4/21/1 3/2/1
f 3/2/2 4/21/2 13/28/2
f 15/4/2 9/29/2 7/5/2
f 3/2/2 13/28/2 15/4/2
f 8/6/3 6/13/3 5/7/3
f 5/7/4 6/13/4 12/30/4
f 10/8/4 16/31/4 1/9/4
f 5/7/4 12/30/4 10/8/4
f 7/5/5 5/7/5 1/10/5
f 4/12/6 2/32/6 6/13/6
f 10/14/1 12/26/1 11/15/1
f 15/17/3 13/33/3 14/18/3
f 8/6/2 7/5/2 9/29/2
f 11/20/2 13/28/2 4/21/2
f 8/6/2 9/29/2 11/20/2
f 2/23/4 1/9/4 16/31/4
f 14/22/4 12/30/4 6/13/4
f 2/23/4 16/31/4 14/22/4
f 16/24/6 10/14/6 9/16/6
f 12/26/5 14/34/5 13/27/5
