# Blender v3.1.2 OBJ File: 'Luna Moth.blend'
# www.blender.org
o Cylinder.008_Cylinder.004
v -5.495416 -0.000000 -1.000000
v 5.495416 -0.000000 -4.187131
v -5.495416 -0.073309 -0.980785
v 5.495416 -0.816869 -4.106676
v -5.495416 -0.143801 -0.923880
v 5.495416 -1.602346 -3.868404
v -5.495416 -0.208767 -0.831470
v 5.495416 -2.326245 -3.481472
v -5.495416 -0.265710 -0.707107
v 5.495416 -2.960749 -2.960749
v -5.495416 -0.312441 -0.555570
v 5.495416 -3.481472 -2.326245
v -5.495416 -0.347166 -0.382683
v 5.495416 -3.868404 -1.602346
v -5.495416 -0.368550 -0.195090
v 5.495416 -4.106676 -0.816869
v -5.495416 -0.375770 0.000000
v 5.495416 -4.187131 0.000000
v -5.495416 -0.368550 0.195090
v 5.495416 -4.106676 0.816869
v -5.495416 -0.347166 0.382683
v 5.495416 -3.868405 1.602345
v -5.495416 -0.312441 0.555570
v 5.495416 -3.481472 2.326245
v -5.495416 -0.265710 0.707107
v 5.495416 -2.960749 2.960749
v -5.495416 -0.208767 0.831470
v 5.495416 -2.326245 3.481472
v -5.495416 -0.143801 0.923880
v 5.495416 -1.602346 3.868404
v -5.495416 -0.073309 0.980785
v 5.495416 -0.816869 4.106677
v -5.495416 -0.000000 1.000000
v 5.495416 0.000000 4.187131
v -5.495416 0.073309 0.980785
v 5.495416 0.816868 4.106677
v -5.495416 0.143801 0.923880
v 5.495416 1.602345 3.868404
v -5.495416 0.208766 0.831470
v 5.495416 2.326246 3.481472
v -5.495416 0.265709 0.707107
v 5.495416 2.960748 2.960749
v -5.495416 0.312441 0.555570
v 5.495415 3.481472 2.326246
v -5.495416 0.347166 0.382684
v 5.495415 3.868404 1.602346
v -5.495416 0.368549 0.195090
v 5.495415 4.106676 0.816869
v -5.495416 0.375770 0.000000
v 5.495415 4.187131 -0.000000
v -5.495416 0.368549 -0.195090
v 5.495415 4.106676 -0.816869
v -5.495416 0.347166 -0.382684
v 5.495415 3.868404 -1.602346
v -5.495416 0.312441 -0.555570
v 5.495415 3.481472 -2.326245
v -5.495416 0.265709 -0.707107
v 5.495416 2.960749 -2.960748
v -5.495416 0.208766 -0.831470
v 5.495416 2.326246 -3.481472
v -5.495416 0.143801 -0.923880
v 5.495416 1.602345 -3.868405
v -5.495416 0.073309 -0.980785
v 5.495416 0.816868 -4.106677
vt 1.000000 0.000837
vt 1.000000 1.000000
vt 0.968750 1.000000
vt 0.968750 0.000837
vt 0.937500 1.000000
vt 0.937500 0.000837
vt 0.906250 1.000000
vt 0.906250 0.000837
vt 0.875000 1.000000
vt 0.875000 0.000837
vt 0.843750 1.000000
vt 0.843750 0.000837
vt 0.812500 1.000000
vt 0.812500 0.000837
vt 0.781250 1.000000
vt 0.781250 0.000837
vt 0.750000 1.000000
vt 0.750000 0.000837
vt 0.718750 1.000000
vt 0.718750 0.000837
vt 0.687500 1.000000
vt 0.687500 0.000837
vt 0.656250 1.000000
vt 0.656250 0.000837
vt 0.625000 1.000000
vt 0.625000 0.000837
vt 0.593750 1.000000
vt 0.593750 0.000837
vt 0.562500 1.000000
vt 0.562500 0.000837
vt 0.531250 1.000000
vt 0.531250 0.000837
vt 0.500000 1.000000
vt 0.500000 0.000837
vt 0.468750 1.000000
vt 0.468750 0.000837
vt 0.437500 1.000000
vt 0.437500 0.000837
vt 0.406250 1.000000
vt 0.406250 0.000837
vt 0.375000 1.000000
vt 0.375000 0.000837
vt 0.343750 1.000000
vt 0.343750 0.000837
vt 0.312500 1.000000
vt 0.312500 0.000837
vt 0.281250 1.000000
vt 0.281250 0.000837
vt 0.250000 1.000000
vt 0.250000 0.000837
vt 0.218750 1.000000
vt 0.218750 0.000837
vt 0.187500 1.000000
vt 0.187500 0.000837
vt 0.156250 1.000000
vt 0.156250 0.000837
vt 0.125000 1.000000
vt 0.125000 0.000837
vt 0.093750 1.000000
vt 0.093750 0.000837
vt 0.062500 1.000000
vt 0.062500 0.000837
vt 0.031250 1.000000
vt 0.031250 0.000837
vt 0.000000 1.000000
vt 0.000000 0.000837
vn -0.2794 -0.0000 -0.9602
vn -0.2814 -0.2117 -0.9359
vn -0.2815 -0.2151 -0.9352
vn -0.2870 -0.4082 -0.8666
vn -0.2872 -0.4128 -0.8643
vn -0.2952 -0.5781 -0.7607
vn -0.2954 -0.5821 -0.7576
vn -0.3044 -0.7154 -0.6289
vn -0.3046 -0.7181 -0.6257
vn -0.3133 -0.8189 -0.4809
vn -0.3134 -0.8204 -0.4782
vn -0.3205 -0.8901 -0.3240
vn -0.3206 -0.8907 -0.3222
vn -0.3253 -0.9315 -0.1628
vn -0.3253 -0.9317 -0.1619
vn -0.3269 -0.9451 0.0000
vn -0.3253 -0.9315 0.1628
vn -0.3253 -0.9317 0.1619
vn -0.3205 -0.8901 0.3240
vn -0.3206 -0.8907 0.3222
vn -0.3133 -0.8189 0.4809
vn -0.3134 -0.8204 0.4782
vn -0.3044 -0.7154 0.6289
vn -0.3046 -0.7181 0.6257
vn -0.2952 -0.5781 0.7607
vn -0.2954 -0.5821 0.7576
vn -0.2870 -0.4082 0.8666
vn -0.2872 -0.4128 0.8643
vn -0.2814 -0.2117 0.9359
vn -0.2815 -0.2151 0.9352
vn -0.2794 0.0000 0.9602
vn -0.2814 0.2117 0.9359
vn -0.2815 0.2151 0.9352
vn -0.2870 0.4082 0.8666
vn -0.2872 0.4128 0.8643
vn -0.2952 0.5781 0.7607
vn -0.2954 0.5821 0.7576
vn -0.3044 0.7154 0.6289
vn -0.3046 0.7181 0.6257
vn -0.3133 0.8189 0.4809
vn -0.3134 0.8204 0.4782
vn -0.3205 0.8901 0.3240
vn -0.3206 0.8907 0.3222
vn -0.3253 0.9315 0.1628
vn -0.3253 0.9317 0.1619
vn -0.3269 0.9451 -0.0000
vn -0.3253 0.9315 -0.1628
vn -0.3253 0.9317 -0.1619
vn -0.3205 0.8901 -0.3240
vn -0.3206 0.8907 -0.3222
vn -0.3133 0.8189 -0.4809
vn -0.3134 0.8204 -0.4782
vn -0.3044 0.7154 -0.6289
vn -0.3046 0.7181 -0.6257
vn -0.2952 0.5781 -0.7607
vn -0.2954 0.5821 -0.7576
vn -0.2870 0.4082 -0.8666
vn -0.2872 0.4128 -0.8643
vn -0.2814 0.2117 -0.9359
vn -0.2815 0.2151 -0.9352
s 1
f 1/1/1 2/2/1 4/3/2 3/4/3
f 3/4/3 4/3/2 6/5/4 5/6/5
f 5/6/5 6/5/4 8/7/6 7/8/7
f 7/8/7 8/7/6 10/9/8 9/10/9
f 9/10/9 10/9/8 12/11/10 11/12/11
f 11/12/11 12/11/10 14/13/12 13/14/13
f 13/14/13 14/13/12 16/15/14 15/16/15
f 15/16/15 16/15/14 18/17/16 17/18/16
f 17/18/16 18/17/16 20/19/17 19/20/18
f 19/20/18 20/19/17 22/21/19 21/22/20
f 21/22/20 22/21/19 24/23/21 23/24/22
f 23/24/22 24/23/21 26/25/23 25/26/24
f 25/26/24 26/25/23 28/27/25 27/28/26
f 27/28/26 28/27/25 30/29/27 29/30/28
f 29/30/28 30/29/27 32/31/29 31/32/30
f 31/32/30 32/31/29 34/33/31 33/34/31
f 33/34/31 34/33/31 36/35/32 35/36/33
f 35/36/33 36/35/32 38/37/34 37/38/35
f 37/38/35 38/37/34 40/39/36 39/40/37
f 39/40/37 40/39/36 42/41/38 41/42/39
f 41/42/39 42/41/38 44/43/40 43/44/41
f 43/44/41 44/43/40 46/45/42 45/46/43
f 45/46/43 46/45/42 48/47/44 47/48/45
f 47/48/45 48/47/44 50/49/46 49/50/46
f 49/50/46 50/49/46 52/51/47 51/52/48
f 51/52/48 52/51/47 54/53/49 53/54/50
f 53/54/50 54/53/49 56/55/51 55/56/52
f 55/56/52 56/55/51 58/57/53 57/58/54
f 57/58/54 58/57/53 60/59/55 59/60/56
f 59/60/56 60/59/55 62/61/57 61/62/58
f 61/62/58 62/61/57 64/63/59 63/64/60
f 63/64/60 64/63/59 2/65/1 1/66/1
