# Blender v3.1.2 OBJ File: 'Luna Moth.blend'
# www.blender.org
o Cube.037_Cube.078
v -5.495417 -0.043814 0.175459
v -5.495417 0.043814 0.175459
v -5.495417 -0.043814 -0.175465
v -5.495417 0.043814 -0.175465
v 5.495417 -2.594362 5.974297
v 5.495417 2.594362 5.974297
v 5.495417 -2.594362 -5.974291
v 5.495417 2.594362 -5.974291
vt 0.870660 0.435675
vt 0.874500 0.435675
vt 0.986254 0.980164
vt 0.758906 0.980164
vt 0.233236 0.982251
vt 0.005887 0.982251
vt 0.117642 0.437761
vt 0.121481 0.437761
vt 0.504821 0.485767
vt 0.758902 0.980137
vt 0.235364 0.980137
vt 0.489445 0.485767
vt 0.233268 0.982223
vt 0.487349 0.487853
vt 0.502725 0.487853
vt 0.756806 0.982223
vn -0.4666 0.0000 -0.8844
vn -0.4666 0.0000 0.8844
vn -0.2261 -0.9741 0.0000
vn -0.2261 0.9741 0.0000
s off
f 3/1/1 4/2/1 8/3/1 7/4/1
f 5/5/2 6/6/2 2/7/2 1/8/2
f 3/9/3 7/10/3 5/11/3 1/12/3
f 8/13/4 4/14/4 2/15/4 6/16/4
