{
    "asset" : {
        "generator" : "Khronos glTF Blender I/O v1.8.19",
        "version" : "2.0"
    },
    "scene" : 0,
    "scenes" : [
        {
            "name" : "Global",
            "nodes" : [
                0,
                2
            ]
        },
        {
            "name" : "Modules"
        }
    ],
    "nodes" : [
        {
            "mesh" : 0,
            "name" : "LP Security Door.003",
            "translation" : [
                0.27454328536987305,
                0.9576976299285889,
                1.2795791625976562
            ]
        },
        {
            "mesh" : 1,
            "name" : "Security Panel.009",
            "translation" : [
                -0.12598609924316406,
                0.38983154296875,
                -0.03558728098869324
            ]
        },
        {
            "children" : [
                1
            ],
            "mesh" : 2,
            "name" : "LP Security Panel.005",
            "translation" : [
                -0.007524013519287109,
                -0.5612869262695312,
                -0.4027976989746094
            ]
        }
    ],
    "animations" : [
        {
            "channels" : [
                {
                    "sampler" : 0,
                    "target" : {
                        "node" : 0,
                        "path" : "translation"
                    }
                }
            ],
            "name" : "SecurityDoorAction",
            "samplers" : [
                {
                    "input" : 12,
                    "interpolation" : "CUBICSPLINE",
                    "output" : 13
                }
            ]
        }
    ],
    "materials" : [
        {
            "doubleSided" : true,
            "name" : "Security_Door",
            "normalTexture" : {
                "index" : 0
            },
            "pbrMetallicRoughness" : {
                "baseColorTexture" : {
                    "index" : 1
                },
                "metallicRoughnessTexture" : {
                    "index" : 2
                }
            }
        },
        {
            "doubleSided" : true,
            "name" : "Security_Panel",
            "normalTexture" : {
                "index" : 3
            },
            "pbrMetallicRoughness" : {
                "baseColorTexture" : {
                    "index" : 4
                },
                "metallicRoughnessTexture" : {
                    "index" : 5
                }
            }
        },
        {
            "doubleSided" : true,
            "name" : "Security_Panel_Support",
            "normalTexture" : {
                "index" : 6
            },
            "pbrMetallicRoughness" : {
                "baseColorTexture" : {
                    "index" : 7
                },
                "metallicRoughnessTexture" : {
                    "index" : 8
                }
            }
        }
    ],
    "meshes" : [
        {
            "name" : "Cube.097",
            "primitives" : [
                {
                    "attributes" : {
                        "POSITION" : 0,
                        "NORMAL" : 1,
                        "TEXCOORD_0" : 2
                    },
                    "indices" : 3,
                    "material" : 0
                }
            ]
        },
        {
            "name" : "Cube.100",
            "primitives" : [
                {
                    "attributes" : {
                        "POSITION" : 4,
                        "NORMAL" : 5,
                        "TEXCOORD_0" : 6
                    },
                    "indices" : 7,
                    "material" : 1
                }
            ]
        },
        {
            "name" : "Cube.099",
            "primitives" : [
                {
                    "attributes" : {
                        "POSITION" : 8,
                        "NORMAL" : 9,
                        "TEXCOORD_0" : 10
                    },
                    "indices" : 11,
                    "material" : 2
                }
            ]
        }
    ],
    "textures" : [
        {
            "sampler" : 0,
            "source" : 0
        },
        {
            "sampler" : 0,
            "source" : 1
        },
        {
            "sampler" : 0,
            "source" : 2
        },
        {
            "sampler" : 0,
            "source" : 3
        },
        {
            "sampler" : 0,
            "source" : 4
        },
        {
            "sampler" : 0,
            "source" : 5
        },
        {
            "sampler" : 0,
            "source" : 6
        },
        {
            "sampler" : 0,
            "source" : 7
        },
        {
            "sampler" : 0,
            "source" : 8
        }
    ],
    "images" : [
        {
            "mimeType" : "image/png",
            "name" : "Security_Door_Normal",
            "uri" : "tex/Security_Door_Normal.png"
        },
        {
            "mimeType" : "image/png",
            "name" : "Security_Door_Diffuse",
            "uri" : "tex/Security_Door_Diffuse.png"
        },
        {
            "mimeType" : "image/png",
            "name" : "Security_Door_Metalness-Security_Door_Roughness",
            "uri" : "tex/Security_Door_Metalness-Security_Door_Roughness.png"
        },
        {
            "mimeType" : "image/png",
            "name" : "Security_Panel_Normal",
            "uri" : "tex/Security_Panel_Normal.png"
        },
        {
            "mimeType" : "image/png",
            "name" : "Security_Panel_Diffuse",
            "uri" : "tex/Security_Panel_Diffuse.png"
        },
        {
            "mimeType" : "image/png",
            "name" : "Security_Panel_Metalness-Security_Panel_Roughness",
            "uri" : "tex/Security_Panel_Metalness-Security_Panel_Roughness.png"
        },
        {
            "mimeType" : "image/png",
            "name" : "Security_Panel_Support_Normal",
            "uri" : "tex/Security_Panel_Support_Normal.png"
        },
        {
            "mimeType" : "image/png",
            "name" : "Security_Panel_Support_Diffuse",
            "uri" : "tex/Security_Panel_Support_Diffuse.png"
        },
        {
            "mimeType" : "image/png",
            "name" : "Security_Panel_Support_Metalness-Security_Panel_Support_Roughness",
            "uri" : "tex/Security_Panel_Support_Metalness-Security_Panel_Support_Roughness.png"
        }
    ],
    "accessors" : [
        {
            "bufferView" : 0,
            "componentType" : 5126,
            "count" : 640,
            "max" : [
                0.17015086114406586,
                1.474537968635559,
                1.3494700193405151
            ],
            "min" : [
                -0.16157719492912292,
                -2.499455451965332,
                -1.3407584428787231
            ],
            "type" : "VEC3"
        },
        {
            "bufferView" : 1,
            "componentType" : 5126,
            "count" : 640,
            "type" : "VEC3"
        },
        {
            "bufferView" : 2,
            "componentType" : 5126,
            "count" : 640,
            "type" : "VEC2"
        },
        {
            "bufferView" : 3,
            "componentType" : 5123,
            "count" : 1224,
            "type" : "SCALAR"
        },
        {
            "bufferView" : 4,
            "componentType" : 5126,
            "count" : 296,
            "max" : [
                0.10305088758468628,
                0.14546823501586914,
                0.14656153321266174
            ],
            "min" : [
                -0.05224236100912094,
                -0.11069028079509735,
                -0.07483277469873428
            ],
            "type" : "VEC3"
        },
        {
            "bufferView" : 5,
            "componentType" : 5126,
            "count" : 296,
            "type" : "VEC3"
        },
        {
            "bufferView" : 6,
            "componentType" : 5126,
            "count" : 296,
            "type" : "VEC2"
        },
        {
            "bufferView" : 7,
            "componentType" : 5123,
            "count" : 570,
            "type" : "SCALAR"
        },
        {
            "bufferView" : 8,
            "componentType" : 5126,
            "count" : 688,
            "max" : [
                0.060186319053173065,
                0.5997712016105652,
                0.175807386636734
            ],
            "min" : [
                -0.17056097090244293,
                -0.3742336928844452,
                -0.17522434890270233
            ],
            "type" : "VEC3"
        },
        {
            "bufferView" : 9,
            "componentType" : 5126,
            "count" : 688,
            "type" : "VEC3"
        },
        {
            "bufferView" : 10,
            "componentType" : 5126,
            "count" : 688,
            "type" : "VEC2"
        },
        {
            "bufferView" : 11,
            "componentType" : 5123,
            "count" : 1212,
            "type" : "SCALAR"
        },
        {
            "bufferView" : 12,
            "componentType" : 5126,
            "count" : 4,
            "max" : [
                4.791666666666667
            ],
            "min" : [
                0.20833333333333334
            ],
            "type" : "SCALAR"
        },
        {
            "bufferView" : 13,
            "componentType" : 5126,
            "count" : 12,
            "type" : "VEC3"
        }
    ],
    "bufferViews" : [
        {
            "buffer" : 0,
            "byteLength" : 7680,
            "byteOffset" : 0
        },
        {
            "buffer" : 0,
            "byteLength" : 7680,
            "byteOffset" : 7680
        },
        {
            "buffer" : 0,
            "byteLength" : 5120,
            "byteOffset" : 15360
        },
        {
            "buffer" : 0,
            "byteLength" : 2448,
            "byteOffset" : 20480
        },
        {
            "buffer" : 0,
            "byteLength" : 3552,
            "byteOffset" : 22928
        },
        {
            "buffer" : 0,
            "byteLength" : 3552,
            "byteOffset" : 26480
        },
        {
            "buffer" : 0,
            "byteLength" : 2368,
            "byteOffset" : 30032
        },
        {
            "buffer" : 0,
            "byteLength" : 1140,
            "byteOffset" : 32400
        },
        {
            "buffer" : 0,
            "byteLength" : 8256,
            "byteOffset" : 33540
        },
        {
            "buffer" : 0,
            "byteLength" : 8256,
            "byteOffset" : 41796
        },
        {
            "buffer" : 0,
            "byteLength" : 5504,
            "byteOffset" : 50052
        },
        {
            "buffer" : 0,
            "byteLength" : 2424,
            "byteOffset" : 55556
        },
        {
            "buffer" : 0,
            "byteLength" : 16,
            "byteOffset" : 57980
        },
        {
            "buffer" : 0,
            "byteLength" : 144,
            "byteOffset" : 57996
        }
    ],
    "samplers" : [
        {
            "magFilter" : 9729,
            "minFilter" : 9987
        }
    ],
    "buffers" : [
        {
            "byteLength" : 58140,
            "uri" : "SecurityDoor.bin"
        }
    ]
}
