{
    "asset" : {
        "generator" : "Khronos glTF Blender I/O v1.8.19",
        "version" : "2.0"
    },
    "scene" : 0,
    "scenes" : [
        {
            "name" : "Global",
            "nodes" : [
                0,
                1,
                3
            ]
        },
        {
            "name" : "Modules"
        }
    ],
    "nodes" : [
        {
            "mesh" : 0,
            "name" : "LP Simple Door A.001",
            "translation" : [
                -0.6803169846534729,
                2.036041736602783,
                -0.563534677028656
            ]
        },
        {
            "mesh" : 1,
            "name" : "LP Simple Door B.001",
            "translation" : [
                0.0016936399042606354,
                2.0403547286987305,
                -0.5640260577201843
            ]
        },
        {
            "mesh" : 2,
            "name" : "LP Lever.002",
            "rotation" : [
                -0.07921818643808365,
                -0.07921810448169708,
                -0.7026553750038147,
                0.7026553153991699
            ],
            "scale" : [
                1.1950262784957886,
                0.6814520955085754,
                1.1950262784957886
            ],
            "translation" : [
                0,
                0,
                -0.005930423736572266
            ]
        },
        {
            "children" : [
                2
            ],
            "mesh" : 3,
            "name" : "LP Simple Lever.002",
            "translation" : [
                -1.776659369468689,
                1.9036532640457153,
                -0.3137989044189453
            ]
        }
    ],
    "animations" : [
        {
            "channels" : [
                {
                    "sampler" : 0,
                    "target" : {
                        "node" : 0,
                        "path" : "translation"
                    }
                },
                {
                    "sampler" : 1,
                    "target" : {
                        "node" : 1,
                        "path" : "translation"
                    }
                }
            ],
            "name" : "DoorAction",
            "samplers" : [
                {
                    "input" : 16,
                    "interpolation" : "LINEAR",
                    "output" : 17
                },
                {
                    "input" : 18,
                    "interpolation" : "LINEAR",
                    "output" : 19
                }
            ]
        },
        {
            "channels" : [
                {
                    "sampler" : 0,
                    "target" : {
                        "node" : 2,
                        "path" : "rotation"
                    }
                }
            ],
            "name" : "LeverAction",
            "samplers" : [
                {
                    "input" : 20,
                    "interpolation" : "LINEAR",
                    "output" : 21
                }
            ]
        }
    ],
    "materials" : [
        {
            "doubleSided" : true,
            "name" : "Simple_Door_A",
            "normalTexture" : {
                "index" : 0
            },
            "pbrMetallicRoughness" : {
                "baseColorTexture" : {
                    "index" : 1
                },
                "metallicRoughnessTexture" : {
                    "index" : 2
                }
            }
        },
        {
            "doubleSided" : true,
            "name" : "Simple_Door_B",
            "normalTexture" : {
                "index" : 3
            },
            "pbrMetallicRoughness" : {
                "baseColorTexture" : {
                    "index" : 4
                },
                "metallicRoughnessTexture" : {
                    "index" : 5
                }
            }
        },
        {
            "doubleSided" : true,
            "name" : "Lever",
            "pbrMetallicRoughness" : {
                "baseColorTexture" : {
                    "index" : 6
                },
                "metallicFactor" : 0,
                "roughnessFactor" : 0.5
            }
        },
        {
            "doubleSided" : true,
            "name" : "Simple_Lever",
            "normalTexture" : {
                "index" : 7
            },
            "pbrMetallicRoughness" : {
                "baseColorTexture" : {
                    "index" : 8
                },
                "metallicRoughnessTexture" : {
                    "index" : 9
                }
            }
        }
    ],
    "meshes" : [
        {
            "name" : "Cube.086",
            "primitives" : [
                {
                    "attributes" : {
                        "POSITION" : 0,
                        "NORMAL" : 1,
                        "TEXCOORD_0" : 2
                    },
                    "indices" : 3,
                    "material" : 0
                }
            ]
        },
        {
            "name" : "Cube.087",
            "primitives" : [
                {
                    "attributes" : {
                        "POSITION" : 4,
                        "NORMAL" : 5,
                        "TEXCOORD_0" : 6
                    },
                    "indices" : 7,
                    "material" : 1
                }
            ]
        },
        {
            "name" : "Cylinder.002",
            "primitives" : [
                {
                    "attributes" : {
                        "POSITION" : 8,
                        "NORMAL" : 9,
                        "TEXCOORD_0" : 10
                    },
                    "indices" : 11,
                    "material" : 2
                }
            ]
        },
        {
            "name" : "Cube.003",
            "primitives" : [
                {
                    "attributes" : {
                        "POSITION" : 12,
                        "NORMAL" : 13,
                        "TEXCOORD_0" : 14
                    },
                    "indices" : 15,
                    "material" : 3
                }
            ]
        }
    ],
    "textures" : [
        {
            "sampler" : 0,
            "source" : 0
        },
        {
            "sampler" : 0,
            "source" : 1
        },
        {
            "sampler" : 0,
            "source" : 2
        },
        {
            "sampler" : 0,
            "source" : 3
        },
        {
            "sampler" : 0,
            "source" : 4
        },
        {
            "sampler" : 0,
            "source" : 5
        },
        {
            "sampler" : 0,
            "source" : 6
        },
        {
            "sampler" : 0,
            "source" : 7
        },
        {
            "sampler" : 0,
            "source" : 8
        },
        {
            "sampler" : 0,
            "source" : 9
        }
    ],
    "images" : [
        {
            "mimeType" : "image/png",
            "name" : "Simple_Door_A_Normal",
            "uri" : "tex/Simple_Door_A_Normal.png"
        },
        {
            "mimeType" : "image/png",
            "name" : "Simple_Door_A_Diffuse",
            "uri" : "tex/Simple_Door_A_Diffuse.png"
        },
        {
            "mimeType" : "image/png",
            "name" : "Simple_Door_A_Metalness-Simple_Door_A_Roughness",
            "uri" : "tex/Simple_Door_A_Metalness-Simple_Door_A_Roughness.png"
        },
        {
            "mimeType" : "image/png",
            "name" : "Simple_Door_B_Normal",
            "uri" : "tex/Simple_Door_B_Normal.png"
        },
        {
            "mimeType" : "image/png",
            "name" : "Simple_Door_B_Diffuse",
            "uri" : "tex/Simple_Door_B_Diffuse.png"
        },
        {
            "mimeType" : "image/png",
            "name" : "Simple_Door_B_Metalness-Simple_Door_B_Roughness",
            "uri" : "tex/Simple_Door_B_Metalness-Simple_Door_B_Roughness.png"
        },
        {
            "mimeType" : "image/png",
            "name" : "Lever_Diffuse",
            "uri" : "tex/Lever_Diffuse.png"
        },
        {
            "mimeType" : "image/png",
            "name" : "Simple_Lever_Normal",
            "uri" : "tex/Simple_Lever_Normal.png"
        },
        {
            "mimeType" : "image/png",
            "name" : "Simple_Lever_Diffuse",
            "uri" : "tex/Simple_Lever_Diffuse.png"
        },
        {
            "mimeType" : "image/png",
            "name" : "Simple_Lever_Metalness-Simple_Lever_Roughness",
            "uri" : "tex/Simple_Lever_Metalness-Simple_Lever_Roughness.png"
        }
    ],
    "accessors" : [
        {
            "bufferView" : 0,
            "componentType" : 5126,
            "count" : 882,
            "max" : [
                0.6446977853775024,
                1.278525471687317,
                0.09856508672237396
            ],
            "min" : [
                -0.8367696404457092,
                -1.6248575448989868,
                -0.09957589209079742
            ],
            "type" : "VEC3"
        },
        {
            "bufferView" : 1,
            "componentType" : 5126,
            "count" : 882,
            "type" : "VEC3"
        },
        {
            "bufferView" : 2,
            "componentType" : 5126,
            "count" : 882,
            "type" : "VEC2"
        },
        {
            "bufferView" : 3,
            "componentType" : 5123,
            "count" : 2364,
            "type" : "SCALAR"
        },
        {
            "bufferView" : 4,
            "componentType" : 5126,
            "count" : 890,
            "max" : [
                0.7149927020072937,
                1.2742125988006592,
                0.09905654937028885
            ],
            "min" : [
                -0.4007546305656433,
                -1.6291704177856445,
                -0.09908442944288254
            ],
            "type" : "VEC3"
        },
        {
            "bufferView" : 5,
            "componentType" : 5126,
            "count" : 890,
            "type" : "VEC3"
        },
        {
            "bufferView" : 6,
            "componentType" : 5126,
            "count" : 890,
            "type" : "VEC2"
        },
        {
            "bufferView" : 7,
            "componentType" : 5123,
            "count" : 2376,
            "type" : "SCALAR"
        },
        {
            "bufferView" : 8,
            "componentType" : 5126,
            "count" : 344,
            "max" : [
                0.0038880854845046997,
                0.12071357667446136,
                0.1477726250886917
            ],
            "min" : [
                -0.07337451726198196,
                -0.1241520568728447,
                0.004175245761871338
            ],
            "type" : "VEC3"
        },
        {
            "bufferView" : 9,
            "componentType" : 5126,
            "count" : 344,
            "type" : "VEC3"
        },
        {
            "bufferView" : 10,
            "componentType" : 5126,
            "count" : 344,
            "type" : "VEC2"
        },
        {
            "bufferView" : 11,
            "componentType" : 5123,
            "count" : 528,
            "type" : "SCALAR"
        },
        {
            "bufferView" : 12,
            "componentType" : 5126,
            "count" : 120,
            "max" : [
                0.14446474611759186,
                0.15828967094421387,
                0.037253737449645996
            ],
            "min" : [
                -0.14446480572223663,
                -0.15828967094421387,
                -0.056165456771850586
            ],
            "type" : "VEC3"
        },
        {
            "bufferView" : 13,
            "componentType" : 5126,
            "count" : 120,
            "type" : "VEC3"
        },
        {
            "bufferView" : 14,
            "componentType" : 5126,
            "count" : 120,
            "type" : "VEC2"
        },
        {
            "bufferView" : 15,
            "componentType" : 5123,
            "count" : 228,
            "type" : "SCALAR"
        },
        {
            "bufferView" : 16,
            "componentType" : 5126,
            "count" : 65,
            "max" : [
                2.7083333333333335
            ],
            "min" : [
                0.041666666666666664
            ],
            "type" : "SCALAR"
        },
        {
            "bufferView" : 17,
            "componentType" : 5126,
            "count" : 65,
            "type" : "VEC3"
        },
        {
            "bufferView" : 18,
            "componentType" : 5126,
            "count" : 71,
            "max" : [
                3.5416666666666665
            ],
            "min" : [
                0.625
            ],
            "type" : "SCALAR"
        },
        {
            "bufferView" : 19,
            "componentType" : 5126,
            "count" : 71,
            "type" : "VEC3"
        },
        {
            "bufferView" : 20,
            "componentType" : 5126,
            "count" : 25,
            "max" : [
                1.0416666666666667
            ],
            "min" : [
                0.041666666666666664
            ],
            "type" : "SCALAR"
        },
        {
            "bufferView" : 21,
            "componentType" : 5126,
            "count" : 25,
            "type" : "VEC4"
        }
    ],
    "bufferViews" : [
        {
            "buffer" : 0,
            "byteLength" : 10584,
            "byteOffset" : 0
        },
        {
            "buffer" : 0,
            "byteLength" : 10584,
            "byteOffset" : 10584
        },
        {
            "buffer" : 0,
            "byteLength" : 7056,
            "byteOffset" : 21168
        },
        {
            "buffer" : 0,
            "byteLength" : 4728,
            "byteOffset" : 28224
        },
        {
            "buffer" : 0,
            "byteLength" : 10680,
            "byteOffset" : 32952
        },
        {
            "buffer" : 0,
            "byteLength" : 10680,
            "byteOffset" : 43632
        },
        {
            "buffer" : 0,
            "byteLength" : 7120,
            "byteOffset" : 54312
        },
        {
            "buffer" : 0,
            "byteLength" : 4752,
            "byteOffset" : 61432
        },
        {
            "buffer" : 0,
            "byteLength" : 4128,
            "byteOffset" : 66184
        },
        {
            "buffer" : 0,
            "byteLength" : 4128,
            "byteOffset" : 70312
        },
        {
            "buffer" : 0,
            "byteLength" : 2752,
            "byteOffset" : 74440
        },
        {
            "buffer" : 0,
            "byteLength" : 1056,
            "byteOffset" : 77192
        },
        {
            "buffer" : 0,
            "byteLength" : 1440,
            "byteOffset" : 78248
        },
        {
            "buffer" : 0,
            "byteLength" : 1440,
            "byteOffset" : 79688
        },
        {
            "buffer" : 0,
            "byteLength" : 960,
            "byteOffset" : 81128
        },
        {
            "buffer" : 0,
            "byteLength" : 456,
            "byteOffset" : 82088
        },
        {
            "buffer" : 0,
            "byteLength" : 260,
            "byteOffset" : 82544
        },
        {
            "buffer" : 0,
            "byteLength" : 780,
            "byteOffset" : 82804
        },
        {
            "buffer" : 0,
            "byteLength" : 284,
            "byteOffset" : 83584
        },
        {
            "buffer" : 0,
            "byteLength" : 852,
            "byteOffset" : 83868
        },
        {
            "buffer" : 0,
            "byteLength" : 100,
            "byteOffset" : 84720
        },
        {
            "buffer" : 0,
            "byteLength" : 400,
            "byteOffset" : 84820
        }
    ],
    "samplers" : [
        {
            "magFilter" : 9729,
            "minFilter" : 9987
        }
    ],
    "buffers" : [
        {
            "byteLength" : 85220,
            "uri" : "SimpleDoor.bin"
        }
    ]
}
