# Blender v3.1.2 OBJ File: 'Asteroids.blend'
# www.blender.org
mtllib Asteroids.mtl
o Asteroid_4_Cube.004
v -3.507023 -0.288187 -2.486256
v -3.472738 0.407511 -2.788411
v -3.378226 -0.301202 -3.201160
v -3.342314 0.419365 -3.422515
v -2.173673 -0.350405 -2.386955
v -2.168967 0.486242 -2.449370
v -2.123634 -0.384522 -3.100111
v -2.127440 0.494565 -3.115027
v -3.569615 0.065084 -2.629319
v -3.458548 0.070867 -3.385301
v -2.030644 0.073468 -3.138865
v -1.987928 0.073290 -2.374024
v -2.714217 -0.462082 -3.187732
v -2.712649 0.516073 -3.262405
v -2.977803 -0.393739 -2.338344
v -2.953266 0.531508 -2.557467
v -2.916574 0.102365 -2.375998
v -2.654366 0.042901 -3.336253
v -3.511351 -0.322874 -2.831284
v -3.486281 0.464457 -3.132968
v -1.989949 -0.421151 -2.714983
v -1.988864 0.545198 -2.741226
v -1.745934 0.066818 -2.698356
v -3.730360 0.080342 -3.046272
v -2.753436 0.674258 -2.865908
v -2.761203 -0.576786 -2.718410
v -3.529798 -0.316684 -2.613841
v -3.536728 0.270105 -2.728804
v -3.430486 0.455605 -3.326869
v -3.446508 -0.148859 -3.293526
v -3.111451 -0.393853 -3.205456
v -2.356664 0.527840 -3.181029
v -2.058040 -0.204736 -3.131672
v -2.032911 -0.420076 -2.946744
v -2.047918 0.528984 -2.548559
v -2.049335 -0.185605 -2.368059
v -2.517904 -0.393406 -2.344088
v -3.292253 0.477063 -2.685779
v -3.560980 -0.146008 -2.529683
v -3.418435 0.282402 -3.443348
v -2.060190 0.337773 -3.139763
v -2.047482 0.328197 -2.399754
v -3.309943 0.084828 -2.476123
v -1.772792 0.064359 -2.500696
v -2.298947 0.056378 -3.261890
v -3.665303 0.082003 -3.253485
v -2.350626 -0.451848 -3.154863
v -3.087266 0.474588 -3.373354
v -3.326736 -0.351901 -2.393330
v -2.505821 0.533247 -2.469112
v -2.420538 0.093077 -2.336363
v -3.082626 0.051982 -3.395558
v -2.679684 -0.238823 -3.297564
v -2.959322 -0.165833 -2.317950
v -2.862262 0.640522 -2.689508
v -2.880700 -0.525719 -2.484721
v -2.942652 0.345690 -2.456697
v -2.678806 0.309074 -3.337001
v -3.464172 -0.320106 -3.055357
v -3.499933 0.443879 -2.934651
v -2.050529 -0.400164 -2.506580
v -2.034302 0.537779 -2.965118
v -1.841553 0.074277 -2.933302
v -3.702268 0.068231 -2.826970
v -2.718720 0.636102 -3.082276
v -2.721367 -0.566514 -2.976800
v -3.181954 -0.487213 -2.756974
v -2.331316 0.659236 -2.780588
v -3.687187 -0.126959 -2.935108
v -1.800269 -0.200622 -2.705154
v -3.163156 0.602257 -3.014407
v -2.333624 -0.553310 -2.712521
v -1.799721 0.333143 -2.712667
v -3.670149 0.283731 -3.131987
v -3.605512 0.286029 -3.331476
v -2.326656 0.328376 -3.254937
v -1.836595 0.327110 -2.515046
v -3.307871 0.308590 -2.575056
v -2.431961 -0.510467 -2.487797
v -3.235454 0.571683 -2.830813
v -3.331383 -0.156836 -2.393783
v -1.836765 -0.197107 -2.503944
v -2.322434 -0.232032 -3.241906
v -3.630227 -0.128066 -3.148818
v -3.097011 -0.200032 -3.328226
v -2.472649 -0.177211 -2.307655
v -2.423139 0.631689 -2.595983
v -3.263505 -0.453653 -2.529172
v -2.464658 0.346571 -2.387486
v -3.080143 0.292366 -3.424403
v -3.136956 -0.478232 -3.003685
v -2.330072 0.631784 -3.002729
v -3.668900 -0.136797 -2.715004
v -1.882249 -0.200000 -2.937568
v -3.115548 0.574077 -3.220230
v -2.326681 -0.546996 -2.961344
v -1.882333 0.340568 -2.945065
v -3.649501 0.270601 -2.919560
vt 0.799153 0.000000
vt 0.770053 0.049621
vt 0.703961 0.060956
vt 0.730582 0.011092
vt 0.763028 0.130586
vt 0.699033 0.137761
vt 0.664993 0.151673
vt 0.660958 0.106392
vt 0.481236 0.593700
vt 0.412780 0.575916
vt 0.408838 0.521760
vt 0.478708 0.534311
vt 0.493491 0.277084
vt 0.409055 0.281719
vt 0.408717 0.165895
vt 0.494607 0.160648
vt 0.347274 0.286547
vt 0.349303 0.169628
vt 0.364260 0.094195
vt 0.412896 0.075854
vt 0.496769 0.069569
vt 0.089169 0.635109
vt 0.067184 0.708728
vt 0.007990 0.701608
vt 0.029498 0.626668
vt 0.056426 0.799775
vt 0.000000 0.795395
vt 0.110426 0.607743
vt 0.044545 0.540648
vt 0.063937 0.504912
vt 0.116895 0.544165
vt 0.194184 0.626668
vt 0.198869 0.562161
vt 0.188666 0.265792
vt 0.107029 0.256613
vt 0.111156 0.135877
vt 0.187709 0.136804
vt 0.042312 0.251299
vt 0.051325 0.138489
vt 0.066821 0.077015
vt 0.113699 0.057521
vt 0.184348 0.048763
vt 0.492727 0.971275
vt 0.496350 0.866148
vt 0.569378 0.885752
vt 0.568868 0.994281
vt 0.501069 0.756770
vt 0.568178 0.771865
vt 0.607881 0.793012
vt 0.619277 0.884151
vt 0.620136 0.992112
vt 0.819922 0.370515
vt 0.788500 0.244492
vt 0.849748 0.225582
vt 0.880305 0.341140
vt 0.826692 0.129457
vt 0.872115 0.134710
vt 0.897921 0.198139
vt 0.925641 0.301660
vt 0.347274 0.243852
vt 0.276696 0.252077
vt 0.268875 0.130876
vt 0.330393 0.130953
vt 0.256961 0.053224
vt 0.304474 0.070829
vt 0.512586 0.664534
vt 0.576819 0.677604
vt 0.524553 0.593700
vt 0.587457 0.605722
vt 0.276339 0.604230
vt 0.280777 0.540861
vt 0.620136 0.728465
vt 0.660958 0.295187
vt 0.584635 0.286669
vt 0.586894 0.170599
vt 0.660958 0.178120
vt 0.585137 0.081232
vt 0.643456 0.102724
vt 0.786596 0.634762
vt 0.802086 0.545320
vt 0.872500 0.544112
vt 0.859556 0.629837
vt 0.827215 0.482314
vt 0.895966 0.482717
vt 0.949767 0.522395
vt 0.929340 0.579973
vt 0.909655 0.635095
vt 0.606536 0.504688
vt 0.553159 0.528840
vt 0.569001 0.420110
vt 0.636764 0.421300
vt 0.485717 0.415676
vt 0.331450 0.499345
vt 0.281391 0.407724
vt 0.347274 0.390513
vt 0.194498 0.425398
vt 0.060452 0.901801
vt 0.007966 0.902373
vt 0.830483 0.482314
vt 0.892829 0.458803
vt 0.008913 0.420045
vt 0.000000 0.276855
vt 0.047586 0.397055
vt 0.788219 0.749326
vt 0.710817 0.738789
vt 0.717080 0.643635
vt 0.803774 0.865190
vt 0.721702 0.842726
vt 0.665508 0.801484
vt 0.660958 0.711092
vt 0.677381 0.650773
vt 0.111438 0.411494
vt 0.408087 0.413373
vt 0.366873 0.495005
vt 0.353028 0.411105
vt 0.929789 0.714634
vt 0.867938 0.741043
vt 0.949767 0.819157
vt 0.886811 0.854703
vt 0.176822 0.843486
vt 0.195943 0.904624
vt 0.130865 0.910531
vt 0.125835 0.823194
vt 0.225613 0.983551
vt 0.158693 1.000000
vt 0.759580 0.470835
vt 0.749514 0.366171
vt 0.682901 0.604319
vt 0.734434 0.566088
vt 0.171190 0.000000
vt 0.242666 0.012803
vt 0.760466 0.505710
vt 0.379267 0.769986
vt 0.375847 0.714610
vt 0.438302 0.677496
vt 0.427091 0.760511
vt 0.508089 0.000000
vt 0.594556 0.016370
vt 0.449680 0.608301
vt 0.691545 0.340740
vt 0.670794 0.230635
vt 0.720972 0.245674
vt 0.347274 0.922939
vt 0.358890 0.836396
vt 0.417223 0.856607
vt 0.410761 0.952915
vt 0.225613 0.727775
vt 0.199495 0.794829
vt 0.138070 0.744080
vt 0.160962 0.673422
vt 0.925641 0.052818
vt 0.893232 0.095063
vt 0.836886 0.059347
vt 0.867887 0.012094
vn -0.9959 0.0098 -0.0895
vn -0.8768 0.4673 -0.1134
vn -0.7383 0.3062 -0.6010
vn -0.8111 -0.1584 -0.5630
vn -0.5530 0.8286 -0.0875
vn -0.4422 0.7703 -0.4594
vn -0.1494 0.5403 -0.8281
vn -0.2747 0.1028 -0.9560
vn -0.3160 -0.2677 -0.9102
vn 0.1675 -0.0832 -0.9824
vn 0.2018 0.1681 -0.9649
vn 0.2908 0.1984 -0.9360
vn 0.3088 -0.0275 -0.9507
vn 0.1485 0.6302 -0.7621
vn 0.2331 0.6342 -0.7372
vn 0.4419 0.5816 -0.6830
vn 0.5695 0.2334 -0.7881
vn 0.5923 -0.0086 -0.8056
vn 0.9958 -0.0010 -0.0916
vn 0.9004 0.4321 -0.0513
vn 0.7319 0.4330 0.5262
vn 0.8404 0.0136 0.5418
vn 0.5630 0.8262 0.0213
vn 0.4143 0.7844 0.4617
vn 0.1544 0.5936 0.7898
vn 0.2775 0.3337 0.9009
vn 0.3339 0.0631 0.9405
vn -0.1570 0.2534 0.9545
vn -0.2243 0.3736 0.9001
vn -0.4295 0.4339 0.7920
vn -0.3764 0.3390 0.8622
vn -0.2548 0.6667 0.7004
vn -0.4449 0.6857 0.5761
vn -0.6065 0.6529 0.4537
vn -0.6649 0.4736 0.5776
vn -0.6796 0.3237 0.6583
vn -0.0662 -0.9958 0.0636
vn 0.2149 -0.9712 0.1031
vn 0.1458 -0.8820 0.4481
vn -0.0906 -0.9128 0.3982
vn 0.5942 -0.8031 0.0436
vn 0.4689 -0.7435 0.4769
vn 0.2582 -0.5011 0.8260
vn 0.0764 -0.4890 0.8689
vn -0.1199 -0.4825 0.8677
vn -0.0551 0.9984 -0.0091
vn -0.2560 0.9647 -0.0611
vn -0.3645 0.9050 0.2192
vn -0.1640 0.9290 0.3319
vn -0.6106 0.7719 0.1772
vn -0.1160 0.0730 0.9906
vn -0.3498 0.1534 0.9242
vn -0.3919 -0.4765 0.7870
vn -0.7321 0.0303 0.6806
vn -0.6573 -0.4114 0.6314
vn 0.9044 -0.4231 -0.0553
vn 0.7554 -0.4023 0.5171
vn 0.3426 -0.2130 0.9150
vn 0.0011 -0.7222 -0.6917
vn 0.0966 -0.3133 -0.9447
vn 0.2693 -0.2438 -0.9317
vn 0.2244 -0.6753 -0.7026
vn 0.5794 -0.2355 -0.7803
vn 0.4854 -0.5698 -0.6631
vn -0.6012 -0.7960 -0.0705
vn -0.8944 -0.4418 -0.0693
vn -0.7407 -0.5162 -0.4300
vn -0.5312 -0.7981 -0.2844
vn -0.3726 -0.4917 -0.7870
vn -0.3626 -0.7133 -0.5998
vn -0.0463 -0.3907 -0.9194
vn -0.1753 -0.7376 -0.6521
vn 0.0483 -0.1905 -0.9805
vn 0.0507 -0.0293 0.9983
vn 0.0166 0.1479 0.9889
vn 0.1763 0.9835 0.0395
vn 0.0631 0.9155 0.3973
vn -0.0557 0.6277 0.7764
vn -0.3145 -0.9490 -0.0210
vn -0.3398 -0.9029 0.2634
vn -0.6899 -0.6989 0.1886
vn -0.0420 0.2993 0.9532
vn 0.1243 0.0705 -0.9897
vn 0.0660 0.6020 -0.7958
vn -0.2791 -0.9299 -0.2395
vn -0.0549 -0.9688 -0.2416
vn 0.1983 0.9291 -0.3121
vn 0.5597 0.7466 -0.3595
vn 0.0266 0.9379 -0.3459
vn -0.9272 -0.2504 0.2785
vn -0.9360 0.1695 0.3085
vn 0.8244 -0.3278 -0.4615
vn 0.6006 -0.7293 -0.3276
vn 0.8578 -0.0032 -0.5139
vn -0.1198 0.9256 -0.3591
vn 0.2242 -0.9446 -0.2396
vn 0.8189 0.3382 -0.4637
vn -0.8317 0.4964 0.2486
usemtl AsteroidShader
s 1
f 24/1/1 74/2/2 75/3/3 46/4/4
f 74/2/2 20/5/5 29/6/6 75/3/3
f 75/3/3 29/6/6 4/7/7 40/8/8
f 46/9/4 75/10/3 40/11/8 10/12/9
f 18/13/10 58/14/11 76/15/12 45/16/13
f 58/14/11 14/17/14 32/18/15 76/15/12
f 76/15/12 32/18/15 8/19/16 41/20/17
f 45/16/13 76/15/12 41/20/17 11/21/18
f 23/22/19 73/23/20 77/24/21 44/25/22
f 73/23/20 22/26/23 35/27/24 77/24/21
f 77/28/21 35/29/24 6/30/25 42/31/26
f 44/32/22 77/28/21 42/31/26 12/33/27
f 17/34/28 57/35/29 78/36/30 43/37/31
f 57/35/29 16/38/32 38/39/33 78/36/30
f 78/36/30 38/39/33 2/40/34 28/41/35
f 43/37/31 78/36/30 28/41/35 9/42/36
f 26/43/37 72/44/38 79/45/39 56/46/40
f 72/44/38 21/47/41 61/48/42 79/45/39
f 79/45/39 61/48/42 5/49/43 37/50/44
f 56/46/40 79/45/39 37/50/44 15/51/45
f 25/52/46 71/53/47 80/54/48 55/55/49
f 71/53/47 20/5/5 60/56/50 80/54/48
f 80/54/48 60/56/50 2/57/34 38/58/33
f 55/55/49 80/54/48 38/58/33 16/59/32
f 15/60/45 54/61/51 81/62/52 49/63/53
f 54/61/51 17/34/28 43/37/31 81/62/52
f 81/62/52 43/37/31 9/42/36 39/64/54
f 49/63/53 81/62/52 39/64/54 1/65/55
f 21/47/41 70/66/56 82/67/57 61/48/42
f 70/66/56 23/68/19 44/69/22 82/67/57
f 82/70/57 44/32/22 12/33/27 36/71/58
f 61/48/42 82/67/57 36/72/58 5/49/43
f 13/73/59 53/74/60 83/75/61 47/76/62
f 53/74/60 18/13/10 45/16/13 83/75/61
f 83/75/61 45/16/13 11/21/18 33/77/63
f 47/76/62 83/75/61 33/77/63 7/78/64
f 19/79/65 69/80/66 84/81/67 59/82/68
f 69/80/66 24/83/1 46/84/4 84/81/67
f 84/81/67 46/84/4 10/85/9 30/86/69
f 59/82/68 84/81/67 30/86/69 3/87/70
f 3/88/70 30/89/69 85/90/71 31/91/72
f 30/89/69 10/12/9 52/92/73 85/90/71
f 85/90/71 52/92/73 18/13/10 53/74/60
f 31/91/72 85/90/71 53/74/60 13/73/59
f 5/93/43 36/71/58 86/94/74 37/95/44
f 36/71/58 12/33/27 51/96/75 86/94/74
f 86/94/74 51/96/75 17/34/28 54/61/51
f 37/95/44 86/94/74 54/61/51 15/60/45
f 22/26/23 68/97/76 87/98/77 35/27/24
f 68/99/76 25/52/46 55/55/49 87/100/77
f 87/101/77 55/102/49 16/38/32 50/103/78
f 35/29/24 87/101/77 50/103/78 6/30/25
f 19/79/65 67/104/79 88/105/80 27/106/81
f 67/104/79 26/107/37 56/108/40 88/105/80
f 88/105/80 56/108/40 15/109/45 49/110/53
f 27/106/81 88/105/80 49/110/53 1/111/55
f 12/33/27 42/31/26 89/112/82 51/96/75
f 42/31/26 6/30/25 50/103/78 89/112/82
f 89/112/82 50/103/78 16/38/32 57/35/29
f 51/96/75 89/112/82 57/35/29 17/34/28
f 10/12/9 40/11/8 90/113/83 52/92/73
f 40/11/8 4/114/7 48/115/84 90/113/83
f 90/113/83 48/115/84 14/17/14 58/14/11
f 52/92/73 90/113/83 58/14/11 18/13/10
f 3/87/70 31/116/72 91/117/85 59/82/68
f 31/116/72 13/118/59 66/119/86 91/117/85
f 91/117/85 66/119/86 26/107/37 67/104/79
f 59/82/68 91/117/85 67/104/79 19/79/65
f 8/120/16 32/121/15 92/122/87 62/123/88
f 32/121/15 14/124/14 65/125/89 92/122/87
f 92/126/87 65/127/89 25/52/46 68/99/76
f 62/123/88 92/122/87 68/97/76 22/26/23
f 1/111/55 39/128/54 93/129/90 27/106/81
f 39/64/54 9/42/36 64/130/91 93/131/90
f 93/129/90 64/132/91 24/83/1 69/80/66
f 27/106/81 93/129/90 69/80/66 19/79/65
f 7/133/64 33/134/63 94/135/92 34/136/93
f 33/77/63 11/21/18 63/137/94 94/138/92
f 94/135/92 63/139/94 23/68/19 70/66/56
f 34/136/93 94/135/92 70/66/56 21/47/41
f 14/140/14 48/141/84 95/142/95 65/127/89
f 48/141/84 4/7/7 29/6/6 95/142/95
f 95/142/95 29/6/6 20/5/5 71/53/47
f 65/127/89 95/142/95 71/53/47 25/52/46
f 13/143/59 47/144/62 96/145/96 66/146/86
f 47/144/62 7/133/64 34/136/93 96/145/96
f 96/145/96 34/136/93 21/47/41 72/44/38
f 66/146/86 96/145/96 72/44/38 26/43/37
f 11/147/18 41/148/17 97/149/97 63/150/94
f 41/148/17 8/120/16 62/123/88 97/149/97
f 97/149/97 62/123/88 22/26/23 73/23/20
f 63/150/94 97/149/97 73/23/20 23/22/19
f 9/151/36 28/152/35 98/153/98 64/154/91
f 28/152/35 2/57/34 60/56/50 98/153/98
f 98/153/98 60/56/50 20/5/5 74/2/2
f 64/154/91 98/153/98 74/2/2 24/1/1
